<svg xmlns="http://www.w3.org/2000/svg" version="1.1" viewBox="0 0 120 90">
<path stroke="#80b5ff" stroke-width="2.00" fill="none" stroke-linecap="butt" vector-effect="non-scaling-stroke" d="
  M 60.02 42.41
  Q 63.75 50.14 65.44 52.06
  Q 75.34 63.37 88.75 54.93"
/>
<path fill="#ffffff" d="
  M 0.31 0.00
  L 27.31 0.00
  Q 36.11 0.77 39.94 7.56
  Q 49.74 24.96 60.02 42.41
  Q 63.75 50.14 65.44 52.06
  Q 75.34 63.37 88.75 54.93
  Q 83.32 64.99 77.64 74.75
  Q 72.68 83.28 71.82 84.26
  Q 68.00 88.67 61.69 90.00
  L 58.44 90.00
  Q 53.82 89.08 50.35 86.28
  Q 47.99 84.37 45.15 79.41
  Q 22.82 40.32 0.56 1.19
  Q 0.14 0.44 0.31 0.00
  Z"
/>
<path fill="#006aff" d="
  M 91.81 0.00
  L 119.56 0.00
  Q 119.59 1.03 118.31 3.31
  Q 103.70 29.33 88.75 54.93
  Q 75.34 63.37 65.44 52.06
  Q 63.75 50.14 60.02 42.41
  Q 69.58 25.96 79.00 9.63
  Q 81.72 4.92 83.99 3.19
  Q 87.33 0.62 91.81 0.00
  Z"
/>
</svg>
